<svg width="34" height="24" viewBox="0 0 34 24" fill="none" xmlns="http://www.w3.org/2000/svg">
<path d="M0.000106707 2.40039H3.57011V23.4004H0.000106707V2.40039ZM7.47183 4.11039C7.47183 3.55039 7.67183 3.08039 8.07183 2.70039C8.49183 2.32039 8.97183 2.13039 9.51183 2.13039C10.0918 2.13039 10.5718 2.32039 10.9518 2.70039C11.3518 3.08039 11.5518 3.55039 11.5518 4.11039C11.5518 4.65039 11.3518 5.12039 10.9518 5.52039C10.5718 5.90039 10.0918 6.09039 9.51183 6.09039C8.97183 6.09039 8.49183 5.90039 8.07183 5.52039C7.67183 5.12039 7.47183 4.65039 7.47183 4.11039ZM7.92183 9.60039H11.1018V23.4004H7.92183V9.60039ZM13.2406 9.60039H21.0706V12.4504H13.2406V9.60039ZM15.5506 4.80039H18.7606V23.4004H15.5506V4.80039ZM22.7851 4.11039C22.7851 3.55039 22.9851 3.08039 23.3851 2.70039C23.8051 2.32039 24.2851 2.13039 24.8251 2.13039C25.4051 2.13039 25.8851 2.32039 26.2651 2.70039C26.6651 3.08039 26.8651 3.55039 26.8651 4.11039C26.8651 4.65039 26.6651 5.12039 26.2651 5.52039C25.8851 5.90039 25.4051 6.09039 24.8251 6.09039C24.2851 6.09039 23.8051 5.90039 23.3851 5.52039C22.9851 5.12039 22.7851 4.65039 22.7851 4.11039ZM23.2351 9.60039H26.4151V23.4004H23.2351V9.60039ZM30.4739 0.000389695H33.7139V23.4004H30.4739V0.000389695Z" fill="#E8EAF2"/>
</svg>
