<svg width="82" height="79" viewBox="0 0 82 79" fill="none" xmlns="http://www.w3.org/2000/svg">
<path d="M76.0357 9.89128C75.3345 11.2495 74.3749 12.3789 73.216 13.3458C72.3154 14.0914 69.7319 15.3462 69.1709 15.1838C69.4219 15.0362 69.6581 14.9181 69.8795 14.7779C73.0167 12.7922 74.6037 9.33028 74.9433 5.72808C74.9433 5.70594 74.9507 5.68379 74.9507 5.66165C75.1352 3.75721 75.0245 1.86753 74.5963 0C74.6185 0.0959601 74.4192 0.568379 74.3897 0.686484C74.3085 1.01127 74.2125 1.32868 74.1018 1.64609C73.5039 3.35122 72.4483 4.8423 71.0015 5.93477C69.3628 7.16748 67.5248 8.02374 65.6499 8.82095C62.9778 9.95033 60.2392 10.9173 57.5081 11.9212C55.9948 12.4748 54.5554 13.1761 53.0865 13.7814C51.6545 14.3719 50.2298 14.8369 48.8643 15.6046C46.1848 17.1031 43.8153 19.1551 41.9625 21.6132C40.3164 23.7981 39.0911 26.2931 38.3382 28.9283C37.9617 30.2644 37.7034 31.6299 37.5779 33.0177C37.4524 34.4054 37.6517 35.6529 37.8879 37.0185C38.0577 38.0224 38.3013 39.0115 38.6039 39.9859C38.9065 40.9528 39.2756 41.8977 39.6964 42.8204C40.1245 43.7431 40.5969 44.6436 41.121 45.5146C41.6672 46.43 42.2652 47.3157 42.9 48.1646C43.0697 48.3934 43.2543 48.6223 43.4314 48.8511C43.52 48.9692 43.616 49.0799 43.7119 49.198C43.83 49.3383 44.1032 49.5966 43.7636 49.5523C43.4314 49.5081 43.1214 49.0578 42.8926 48.8511C42.4866 48.4746 42.0511 48.1203 41.6377 47.7439C39.785 46.0609 38.102 44.0162 36.6921 41.9493C35.4963 40.1999 34.079 38.4653 33.1711 36.5682C32.7134 35.6086 32.1672 34.6933 31.7317 33.7189C31.4143 33.0177 31.1264 32.2943 30.8385 31.5783C30.5506 30.8549 30.4842 30.8475 30.2849 30.102C29.7165 28.0277 29.3548 25.8723 29.4803 23.7095C29.5689 22.0782 29.9601 20.6167 30.2628 19.0149C30.0265 18.4391 29.7903 17.8707 29.5394 17.3024C29.3179 16.8004 29.0891 16.2985 28.8455 15.8113C28.6019 15.3167 28.3362 14.8222 28.0557 14.3497C27.7752 13.8773 27.4725 13.4197 27.1404 12.9768C26.8156 12.5413 26.4613 12.1353 26.07 11.7514C25.6862 11.375 25.2728 11.0354 24.8225 10.7402C23.9368 10.157 22.9255 9.8027 21.8921 9.56649C20.8291 9.33028 19.744 9.21956 18.6516 9.16788C18.1422 9.14574 17.6329 9.13836 17.131 9.13836C13.5214 9.13098 9.91182 9.13098 6.30224 9.13098C6.22104 9.13098 6.1177 9.09407 6.06603 9.18265C6.01436 9.27861 6.11032 9.33766 6.15461 9.40409C7.46114 11.3233 8.76768 13.2277 10.0742 15.1469C12.9825 19.4209 16.1123 23.3921 19.2495 27.5037C22.2907 31.4897 24.9037 34.804 27.7087 38.9451L27.7235 38.9672C28.1147 39.602 28.6167 40.1852 28.9193 40.879C29.2736 41.6984 29.1555 42.5251 29.1555 43.3961C29.1555 45.4408 29.1629 47.4855 29.1629 49.5376C29.1555 51.1099 29.1481 52.6821 29.1481 54.2544C29.1481 56.956 29.1555 59.6577 29.1555 62.3593C29.1481 62.4258 29.1555 62.4774 29.2293 62.4922C29.377 62.4996 29.5172 62.5217 29.6648 62.5217C33.8797 62.5882 38.4932 62.8317 42.3759 60.9125C42.8852 60.6616 43.3798 60.3885 43.867 60.0932C44.3837 59.7758 44.8856 59.4362 45.3654 59.0672C47.4691 57.4432 48.8495 55.1402 49.6688 52.6452C50.2741 50.7998 50.4513 48.8954 50.4513 46.9762C50.4587 44.3484 50.4144 41.5581 51.5585 39.1296C54.0461 33.8592 59.5601 31.7997 64.3434 29.1276C64.491 29.0464 64.6386 28.9652 64.7863 28.8766C67.606 27.2601 70.3224 25.1711 71.7471 22.248C71.6142 22.5211 70.3298 22.8164 69.9976 22.9197C69.134 23.1854 68.2408 23.37 67.3403 23.4512C66.5505 23.525 65.5687 23.6136 64.8084 23.3626C65.0815 23.4512 65.6204 23.1854 65.8861 23.1116C66.3512 22.9861 66.8162 22.8311 67.2738 22.6687C70.6103 21.4286 73.4743 19.0887 74.899 15.7744C75.7183 13.8847 76.1391 11.936 76.0357 9.89128ZM45.1809 59.1926C45.1882 59.1926 45.1882 59.1926 45.1809 59.1926V59.1926ZM53.4482 36.1917C53.4482 36.1844 53.4482 36.1844 53.4482 36.1917V36.1917ZM53.7361 35.8227C53.7361 35.8153 53.7361 35.8153 53.7361 35.8227V35.8227ZM54.4078 35.1583C54.4078 35.1509 54.4078 35.1509 54.4078 35.1583V35.1583ZM55.9506 33.837C55.9579 33.8296 55.9579 33.837 55.9506 33.837V33.837ZM56.4746 33.4679C56.4746 33.4606 56.4746 33.4606 56.4746 33.4679C56.482 33.4606 56.482 33.4606 56.4746 33.4679C56.482 33.4606 56.4746 33.4606 56.4746 33.4679ZM56.6887 33.3203C56.6887 33.3129 56.6887 33.3129 56.6887 33.3203V33.3203ZM60.9626 30.8844C60.97 30.877 60.97 30.877 60.9626 30.8844C60.97 30.877 60.97 30.8844 60.9626 30.8844ZM61.1176 30.8106C61.1176 30.8032 61.1176 30.8032 61.1176 30.8106V30.8106ZM61.5605 30.5891C61.5605 30.5818 61.5605 30.5818 61.5605 30.5891V30.5891ZM65.9821 28.1458C65.9821 28.1532 65.9821 28.1532 65.9821 28.1458V28.1458ZM65.8418 28.2418C65.8418 28.2344 65.8492 28.2344 65.8418 28.2418V28.2418Z" fill="white"/>
<path d="M5.24858 75.2588L4.68197 73.6981H1.55071L0.984106 75.2588H-2.68351e-06L2.59446 68.3004H3.63822L6.23268 75.2588H5.24858ZM1.86881 72.8333H4.36387L3.11137 69.4038L1.86881 72.8333ZM15.493 68.3004L13.1371 72.6146V75.2588H11.149V72.6146L8.79314 68.3004H10.9999L12.1431 70.7458L13.2862 68.3004H15.493ZM19.1211 75.2588L18.8826 74.3641H16.8746L16.636 75.2588H14.4988L16.7155 68.3004H19.0416L21.2584 75.2588H19.1211ZM17.302 72.7737H18.4551L17.8786 70.6365L17.302 72.7737ZM27.5821 75.2588H25.3753L23.6456 72.2766V75.2588H21.6575V68.3004H23.6456V71.0838L25.2759 68.3004H27.4827L25.415 71.6802L27.5821 75.2588ZM32.3039 75.2588L32.0654 74.3641H30.0574L29.8188 75.2588H27.6816L29.8983 68.3004H32.2244L34.4411 75.2588H32.3039ZM30.4848 72.7737H31.6379L31.0614 70.6365L30.4848 72.7737ZM38.4984 74.384H41.7291V75.2588H37.574V68.3004H41.6794V69.1752H38.4984V71.3124H41.4309V72.1772H38.4984V74.384ZM45.2308 70.1593C45.814 70.1593 46.2812 70.3449 46.6325 70.716C46.9837 71.0805 47.1593 71.5775 47.1593 72.2071V75.2588H46.2945V72.2568C46.2945 71.8525 46.1851 71.541 45.9664 71.3224C45.7478 71.097 45.4462 70.9844 45.0619 70.9844C44.6311 70.9844 44.2832 71.1202 44.0181 71.3919C43.753 71.657 43.6205 72.0679 43.6205 72.6246V75.2588H42.7557V70.2885H43.6205V71.0043C43.9717 70.441 44.5085 70.1593 45.2308 70.1593ZM51.0704 71.1235H49.7483V73.8174C49.7483 74.0626 49.7947 74.2382 49.8875 74.3443C49.9869 74.4437 50.136 74.4967 50.3348 74.5033C50.5336 74.5033 50.7788 74.4967 51.0704 74.4834V75.2588C50.3149 75.3582 49.7616 75.2986 49.4104 75.0799C49.0591 74.8545 48.8835 74.4337 48.8835 73.8174V71.1235H47.8994V70.2885H48.8835V69.1553L49.7483 68.8969V70.2885H51.0704V71.1235ZM52.4483 73.1713C52.5344 73.6153 52.7365 73.9599 53.0546 74.2051C53.3794 74.4503 53.777 74.5729 54.2475 74.5729C54.9036 74.5729 55.3807 74.331 55.6789 73.8472L56.4145 74.2647C55.9308 75.0136 55.2018 75.388 54.2276 75.388C53.439 75.388 52.7962 75.1428 52.2992 74.6524C51.8088 74.1554 51.5636 73.5291 51.5636 72.7737C51.5636 72.0248 51.8054 71.4019 52.2892 70.9049C52.773 70.4078 53.3992 70.1593 54.168 70.1593C54.8969 70.1593 55.4901 70.4178 55.9473 70.9347C56.4112 71.445 56.6432 72.0613 56.6432 72.7836C56.6432 72.9095 56.6332 73.0387 56.6133 73.1713H52.4483ZM54.168 70.9744C53.7041 70.9744 53.3197 71.107 53.0149 71.3721C52.71 71.6305 52.5212 71.9784 52.4483 72.4158H55.7684C55.6955 71.9453 55.5099 71.5874 55.2117 71.3422C54.9135 71.097 54.5656 70.9744 54.168 70.9744ZM58.5021 71.1235C58.7871 70.5072 59.304 70.1991 60.0528 70.1991V71.1037C59.6287 71.0838 59.2642 71.1964 58.9594 71.4416C58.6545 71.6868 58.5021 72.0811 58.5021 72.6246V75.2588H57.6373V70.2885H58.5021V71.1235ZM63.6426 70.1593C64.3384 70.1593 64.9315 70.4145 65.4219 70.9247C65.9123 71.4284 66.1575 72.0447 66.1575 72.7737C66.1575 73.5026 65.9123 74.1223 65.4219 74.6325C64.9315 75.1362 64.3384 75.388 63.6426 75.388C62.8208 75.388 62.1946 75.06 61.7638 74.4039V77.2469H60.899V70.2885H61.7638V71.1434C62.1946 70.4874 62.8208 70.1593 63.6426 70.1593ZM63.5332 74.553C64.0302 74.553 64.4478 74.384 64.7857 74.046C65.1237 73.7014 65.2927 73.2773 65.2927 72.7737C65.2927 72.27 65.1237 71.8492 64.7857 71.5112C64.4478 71.1666 64.0302 70.9943 63.5332 70.9943C63.0296 70.9943 62.6088 71.1666 62.2708 71.5112C61.9328 71.8492 61.7638 72.27 61.7638 72.7737C61.7638 73.2773 61.9328 73.7014 62.2708 74.046C62.6088 74.384 63.0296 74.553 63.5332 74.553ZM68.0543 71.1235C68.3392 70.5072 68.8562 70.1991 69.605 70.1991V71.1037C69.1809 71.0838 68.8164 71.1964 68.5116 71.4416C68.2067 71.6868 68.0543 72.0811 68.0543 72.6246V75.2588H67.1895V70.2885H68.0543V71.1235ZM70.8886 69.384C70.7229 69.384 70.5837 69.3276 70.4711 69.215C70.3584 69.1023 70.3021 68.9665 70.3021 68.8074C70.3021 68.6484 70.3584 68.5125 70.4711 68.3999C70.5837 68.2806 70.7229 68.2209 70.8886 68.2209C71.0476 68.2209 71.1835 68.2806 71.2961 68.3999C71.4088 68.5125 71.4651 68.6484 71.4651 68.8074C71.4651 68.9665 71.4088 69.1023 71.2961 69.215C71.1835 69.3276 71.0476 69.384 70.8886 69.384ZM70.4512 75.2588V70.2885H71.316V75.2588H70.4512ZM73.3712 71.6305C73.3712 71.8227 73.4673 71.9784 73.6595 72.0977C73.8517 72.2104 74.0836 72.3032 74.3553 72.376C74.627 72.4423 74.8987 72.5218 75.1704 72.6146C75.4421 72.7008 75.6741 72.8532 75.8663 73.0719C76.0585 73.2839 76.1545 73.559 76.1545 73.8969C76.1545 74.3476 75.9789 74.7087 75.6277 74.9805C75.2831 75.2522 74.8391 75.388 74.2957 75.388C73.8119 75.388 73.3977 75.282 73.0531 75.0699C72.7085 74.8579 72.4633 74.5762 72.3175 74.225L73.0631 73.7975C73.1426 74.0361 73.2917 74.225 73.5104 74.3641C73.7291 74.5033 73.9908 74.5729 74.2957 74.5729C74.5806 74.5729 74.8159 74.5199 75.0014 74.4138C75.187 74.3012 75.2798 74.1289 75.2798 73.8969C75.2798 73.7048 75.1837 73.5523 74.9915 73.4397C74.7993 73.3204 74.5674 73.2276 74.2957 73.1613C74.024 73.0884 73.7523 73.0056 73.4806 72.9128C73.2088 72.8201 72.9769 72.6676 72.7847 72.4556C72.5925 72.2435 72.4964 71.9718 72.4964 71.6405C72.4964 71.2097 72.6621 70.8552 72.9935 70.5768C73.3314 70.2985 73.7523 70.1593 74.2559 70.1593C74.6602 70.1593 75.018 70.2521 75.3295 70.4377C75.6476 70.6166 75.8861 70.8684 76.0452 71.1931L75.3195 71.6007C75.1406 71.1766 74.7861 70.9645 74.2559 70.9645C74.0107 70.9645 73.802 71.0241 73.6297 71.1434C73.4574 71.2561 73.3712 71.4184 73.3712 71.6305ZM77.649 73.1713C77.7351 73.6153 77.9372 73.9599 78.2553 74.2051C78.58 74.4503 78.9777 74.5729 79.4482 74.5729C80.1043 74.5729 80.5814 74.331 80.8796 73.8472L81.6152 74.2647C81.1314 75.0136 80.4025 75.388 79.4283 75.388C78.6397 75.388 77.9969 75.1428 77.4998 74.6524C77.0095 74.1554 76.7643 73.5291 76.7643 72.7737C76.7643 72.0248 77.0061 71.4019 77.4899 70.9049C77.9737 70.4078 78.5999 70.1593 79.3687 70.1593C80.0976 70.1593 80.6907 70.4178 81.148 70.9347C81.6119 71.445 81.8438 72.0613 81.8438 72.7836C81.8438 72.9095 81.8339 73.0387 81.814 73.1713H77.649ZM79.3687 70.9744C78.9048 70.9744 78.5204 71.107 78.2156 71.3721C77.9107 71.6305 77.7219 71.9784 77.649 72.4158H80.9691C80.8962 71.9453 80.7106 71.5874 80.4124 71.3422C80.1142 71.097 79.7663 70.9744 79.3687 70.9744Z" fill="white"/>
</svg>
