<svg width="70" height="63" viewBox="0 0 70 63" fill="none" xmlns="http://www.w3.org/2000/svg">
<path d="M69.9846 9.89128C69.2833 11.2495 68.3237 12.3789 67.1648 13.3458C66.2643 14.0914 63.6808 15.3462 63.1198 15.1838C63.3707 15.0362 63.6069 14.9181 63.8284 14.7779C66.9655 12.7922 68.5526 9.33028 68.8921 5.72808C68.8921 5.70594 68.8995 5.68379 68.8995 5.66165C69.084 3.75721 68.9733 1.86753 68.5452 0C68.5673 0.0959601 68.368 0.568379 68.3385 0.686484C68.2573 1.01127 68.1614 1.32868 68.0506 1.64609C67.4527 3.35122 66.3972 4.8423 64.9504 5.93477C63.3117 7.16748 61.4737 8.02374 59.5988 8.82095C56.9266 9.95033 54.1881 10.9173 51.4569 11.9212C49.9437 12.4748 48.5043 13.1761 47.0354 13.7814C45.6033 14.3719 44.1787 14.8369 42.8131 15.6046C40.1336 17.1031 37.7641 19.1551 35.9114 21.6132C34.2653 23.7981 33.0399 26.2931 32.287 28.9283C31.9106 30.2644 31.6522 31.6299 31.5267 33.0177C31.4012 34.4054 31.6005 35.6529 31.8367 37.0185C32.0065 38.0224 32.2501 39.0115 32.5528 39.9859C32.8554 40.9528 33.2245 41.8977 33.6452 42.8204C34.0734 43.7431 34.5458 44.6436 35.0699 45.5146C35.6161 46.43 36.214 47.3157 36.8488 48.1646C37.0186 48.3934 37.2031 48.6223 37.3803 48.8511C37.4689 48.9692 37.5648 49.0799 37.6608 49.198C37.7789 49.3383 38.052 49.5966 37.7125 49.5523C37.3803 49.5081 37.0703 49.0578 36.8414 48.8511C36.4355 48.4746 35.9999 48.1203 35.5866 47.7439C33.7338 46.0609 32.0508 44.0162 30.6409 41.9493C29.4451 40.1999 28.0279 38.4653 27.1199 36.5682C26.6623 35.6086 26.116 34.6933 25.6805 33.7189C25.3631 33.0177 25.0752 32.2943 24.7874 31.5783C24.4995 30.8549 24.4331 30.8475 24.2337 30.102C23.6654 28.0277 23.3037 25.8723 23.4292 23.7095C23.5177 22.0782 23.909 20.6167 24.2116 19.0149C23.9754 18.4391 23.7392 17.8707 23.4882 17.3024C23.2668 16.8004 23.0379 16.2985 22.7943 15.8113C22.5508 15.3167 22.285 14.8222 22.0045 14.3497C21.724 13.8773 21.4214 13.4197 21.0892 12.9768C20.7644 12.5413 20.4101 12.1353 20.0189 11.7514C19.635 11.375 19.2217 11.0354 18.7714 10.7402C17.8856 10.157 16.8743 9.8027 15.8409 9.56649C14.778 9.33028 13.6929 9.21956 12.6004 9.16788C12.0911 9.14574 11.5818 9.13836 11.0798 9.13836C7.47025 9.13098 3.86067 9.13098 0.251093 9.13098C0.169896 9.13098 0.0665545 9.09407 0.0148836 9.18265C-0.0367872 9.27861 0.0591729 9.33766 0.103462 9.40409C1.41 11.3233 2.71653 13.2277 4.02307 15.1469C6.9314 19.4209 10.0612 23.3921 13.1983 27.5037C16.2395 31.4897 18.8526 34.804 21.6576 38.9451L21.6724 38.9672C22.0636 39.602 22.5655 40.1852 22.8682 40.879C23.2225 41.6984 23.1044 42.5251 23.1044 43.3961C23.1044 45.4408 23.1118 47.4855 23.1118 49.5376C23.1044 51.1099 23.097 52.6821 23.097 54.2544C23.097 56.956 23.1044 59.6577 23.1044 62.3593C23.097 62.4258 23.1044 62.4774 23.1782 62.4922C23.3258 62.4996 23.4661 62.5217 23.6137 62.5217C27.8286 62.5882 32.442 62.8317 36.3247 60.9125C36.8341 60.6616 37.3286 60.3885 37.8158 60.0932C38.3325 59.7758 38.8345 59.4362 39.3143 59.0672C41.418 57.4432 42.7983 55.1402 43.6177 52.6452C44.223 50.7998 44.4001 48.8954 44.4001 46.9762C44.4075 44.3484 44.3632 41.5581 45.5074 39.1296C47.995 33.8592 53.509 31.7997 58.2922 29.1276C58.4398 29.0464 58.5875 28.9652 58.7351 28.8766C61.5549 27.2601 64.2713 25.1711 65.6959 22.248C65.563 22.5211 64.2787 22.8164 63.9465 22.9197C63.0828 23.1854 62.1897 23.37 61.2891 23.4512C60.4993 23.525 59.5176 23.6136 58.7573 23.3626C59.0304 23.4512 59.5692 23.1854 59.835 23.1116C60.3 22.9861 60.765 22.8311 61.2227 22.6687C64.5592 21.4286 67.4232 19.0887 68.8478 15.7744C69.6672 13.8847 70.0879 11.936 69.9846 9.89128ZM39.1297 59.1926C39.1371 59.1926 39.1371 59.1926 39.1297 59.1926V59.1926ZM47.3971 36.1917C47.3971 36.1844 47.3971 36.1844 47.3971 36.1917V36.1917ZM47.6849 35.8227C47.6849 35.8153 47.6849 35.8153 47.6849 35.8227V35.8227ZM48.3567 35.1583C48.3567 35.1509 48.3567 35.1509 48.3567 35.1583V35.1583ZM49.8994 33.837C49.9068 33.8296 49.9068 33.837 49.8994 33.837V33.837ZM50.4235 33.4679C50.4235 33.4606 50.4235 33.4606 50.4235 33.4679C50.4309 33.4606 50.4309 33.4606 50.4235 33.4679C50.4309 33.4606 50.4235 33.4606 50.4235 33.4679ZM50.6376 33.3203C50.6376 33.3129 50.6376 33.3129 50.6376 33.3203V33.3203ZM54.9115 30.8844C54.9189 30.877 54.9189 30.877 54.9115 30.8844C54.9189 30.877 54.9189 30.8844 54.9115 30.8844ZM55.0665 30.8106C55.0665 30.8032 55.0665 30.8032 55.0665 30.8106V30.8106ZM55.5094 30.5891C55.5094 30.5818 55.5094 30.5818 55.5094 30.5891V30.5891ZM59.9309 28.1458C59.9309 28.1532 59.9309 28.1532 59.9309 28.1458V28.1458ZM59.7907 28.2418C59.7907 28.2344 59.7981 28.2344 59.7907 28.2418V28.2418Z" fill="white"/>
</svg>
