<svg width="15" height="14" viewBox="0 0 15 14" fill="none" xmlns="http://www.w3.org/2000/svg">
<path d="M10 4.6665C11.0608 4.6665 12.0782 5.08793 12.8284 5.83808C13.5785 6.58822 14 7.60564 14 8.6665V13.3332H11.3333V8.6665C11.3333 8.31288 11.1928 7.97374 10.9428 7.72369C10.6927 7.47365 10.3536 7.33317 10 7.33317C9.64633 7.33317 9.30724 7.47365 9.05719 7.72369C8.80714 7.97374 8.66666 8.31288 8.66666 8.6665V13.3332H6V8.6665C6 7.60564 6.42142 6.58822 7.17157 5.83808C7.92172 5.08793 8.93913 4.6665 10 4.6665Z" stroke="#00D9FF" stroke-width="1.33333" stroke-linecap="round" stroke-linejoin="round"/>
<path d="M3.33333 5.33301H0.666656V13.333H3.33333V5.33301Z" stroke="#00D9FF" stroke-width="1.33333" stroke-linecap="round" stroke-linejoin="round"/>
<path d="M2 3.33317C2.73638 3.33317 3.33333 2.73622 3.33333 1.99984C3.33333 1.26346 2.73638 0.666504 2 0.666504C1.26362 0.666504 0.666656 1.26346 0.666656 1.99984C0.666656 2.73622 1.26362 3.33317 2 3.33317Z" stroke="#00D9FF" stroke-width="1.33333" stroke-linecap="round" stroke-linejoin="round"/>
</svg>
