<svg width="17" height="12" viewBox="0 0 17 12" fill="none" xmlns="http://www.w3.org/2000/svg">
<path d="M0.75 6C0.75 3.525 0.75 2.2875 1.848 1.51875C2.9475 0.75 4.7145 0.75 8.25 0.75C11.7855 0.75 13.5532 0.75 14.6512 1.51875C15.7492 2.2875 15.75 3.525 15.75 6C15.75 8.475 15.75 9.7125 14.6512 10.4812C13.554 11.25 11.7855 11.25 8.25 11.25C4.7145 11.25 2.94675 11.25 1.848 10.4812C0.74925 9.7125 0.75 8.475 0.75 6Z" stroke="#00D9FF" stroke-width="1.5" stroke-linecap="round" stroke-linejoin="round"/>
<path d="M7.125 4.4311V7.5691C7.1252 7.60948 7.13335 7.64943 7.14898 7.68666C7.16462 7.7239 7.18743 7.75769 7.21613 7.7861C7.24482 7.81451 7.27883 7.837 7.31621 7.85227C7.3536 7.86754 7.39362 7.8753 7.434 7.8751C7.49486 7.87584 7.5545 7.85805 7.605 7.8241L9.98625 6.2686C10.0286 6.24118 10.0635 6.20362 10.0877 6.15934C10.1119 6.11505 10.1247 6.06543 10.1249 6.01496C10.1252 5.96449 10.1128 5.91476 10.089 5.87026C10.0652 5.82576 10.0306 5.7879 9.9885 5.7601L7.60725 4.1776C7.53918 4.13203 7.45588 4.11514 7.37543 4.13058C7.29498 4.14603 7.22386 4.19257 7.1775 4.2601C7.14302 4.31044 7.12471 4.37009 7.125 4.4311Z" stroke="#00D9FF" stroke-width="1.5" stroke-linecap="round" stroke-linejoin="round"/>
</svg>
