<?xml version="1.0" encoding="UTF-8"?>
<svg version="1.1" xmlns="http://www.w3.org/2000/svg" width="396" height="518">
<path d="M0 0 C3.09867903 4.64801855 3.12343667 8.15892935 3.11022377 13.7051115 C3.10998884 14.38140001 3.1097539 15.05768852 3.10951185 15.75447062 C3.10747882 18.03098473 3.09822099 20.30741246 3.08901978 22.58390808 C3.08604238 24.22831744 3.08350556 25.87272764 3.08137262 27.5171383 C3.07420259 32.04401524 3.06070277 36.57085483 3.04618168 41.09771335 C3.03161868 45.97636407 3.02285362 50.85502563 3.01335144 55.73368835 C2.99378198 65.2933701 2.96873592 74.85303007 2.9417484 84.41269346 C2.91992504 92.17812821 2.90007031 99.94356566 2.88163376 107.70900917 C2.87770057 109.36465381 2.87770057 109.36465381 2.87368792 111.05374581 C2.8683705 113.29573993 2.86305771 115.53773407 2.85774951 117.77972821 C2.80771045 138.81649424 2.75148224 159.85324028 2.69314377 180.8899847 C2.64317543 198.96009387 2.59847203 217.03020981 2.55761719 235.1003418 C2.51021602 256.06473091 2.4595987 277.02910813 2.40379179 297.99347669 C2.39785634 300.22646382 2.39192498 302.45945097 2.38599777 304.69243813 C2.38307939 305.79123335 2.380161 306.89002857 2.37715418 308.02212062 C2.35676112 315.78426127 2.33868607 323.54640537 2.32149124 331.3085537 C2.30049262 340.75909142 2.27596714 350.209612 2.24684478 359.66012832 C2.23206197 364.48648837 2.21890978 369.31283871 2.21003914 374.13921356 C2.20188713 378.54991814 2.18919746 382.96058456 2.17275397 387.37126581 C2.16759582 388.97410974 2.1641519 390.57696022 2.16251679 392.17981162 C2.16006237 394.34405618 2.15157801 396.50819172 2.14145851 398.67241192 C2.1382584 399.87889344 2.13505828 401.08537496 2.13176119 402.32841653 C2 405 2 405 1 406 C-1.22831143 406.1101855 -3.46016032 406.14914583 -5.69116211 406.16113281 C-6.39035263 406.16609772 -7.08954315 406.17106262 -7.80992126 406.17617798 C-10.13240528 406.19083258 -12.45482102 406.19760669 -14.77734375 406.203125 C-16.3853811 406.20887332 -17.99341841 406.21463109 -19.60145569 406.22039795 C-22.9767387 406.23091705 -26.35199782 406.23675389 -29.72729492 406.24023438 C-34.0598828 406.24572394 -38.39215715 406.26975775 -42.72464657 406.29820633 C-46.04713372 406.31679617 -49.36954477 406.32203632 -52.69207954 406.32357025 C-54.28973672 406.32660513 -55.8873923 406.33466162 -57.4849987 406.34775543 C-59.71672554 406.36474194 -61.94767877 406.36295449 -64.17944336 406.35644531 C-65.4510582 406.36009094 -66.72267303 406.36373657 -68.03282166 406.36749268 C-69.01199051 406.24622009 -69.99115936 406.12494751 -71 406 C-71.99 404.515 -71.99 404.515 -73 403 C-72.3909893 400.65095874 -71.71927295 398.31765729 -71 396 C-70.9629721 394.3337447 -70.95240038 392.66598681 -71 391 C-70.67 390.34 -70.34 389.68 -70 389 C-63.79979258 387.8708674 -57.66110249 387.86793936 -51.375 387.90234375 C-49.89374634 387.90446617 -49.89374634 387.90446617 -48.38256836 387.90663147 C-45.25501364 387.91219073 -42.12753277 387.92473554 -39 387.9375 C-36.86849062 387.94252027 -34.73698012 387.94708225 -32.60546875 387.95117188 C-27.403621 387.96214678 -22.20181578 387.97884388 -17 388 C-16.99864347 387.34860605 -16.99728694 386.6972121 -16.99588931 386.02607894 C-16.91519208 347.39611518 -16.82421818 308.7661878 -16.71994839 270.13628016 C-16.70742992 265.49515052 -16.69499709 260.85402064 -16.68261719 256.21289062 C-16.68015119 255.28894777 -16.6776852 254.36500492 -16.67514448 253.41306379 C-16.63544994 238.46410469 -16.60268799 223.51513805 -16.57250018 208.56615707 C-16.54135658 193.22050815 -16.50273477 177.8748911 -16.45720994 162.52927804 C-16.4293664 153.06465788 -16.40731548 143.60006097 -16.39273749 134.13541093 C-16.38217348 127.64004134 -16.36432793 121.14471683 -16.34083296 114.64938125 C-16.32750209 110.9051893 -16.31730833 107.16106037 -16.31578636 103.41684341 C-16.31404824 99.34843148 -16.29693903 95.28022341 -16.2784729 91.21185303 C-16.28040763 90.04061315 -16.28234237 88.86937328 -16.28433573 87.66264129 C-16.23429166 80.26381128 -15.43680455 73.25783021 -14 66 C-13.34 66 -12.68 66 -12 66 C-12.185625 64.948125 -12.37125 63.89625 -12.5625 62.8125 C-12.95079331 59.42880118 -12.88247485 57.23574112 -12 54 C-11.67 54 -11.34 54 -11 54 C-10.95101562 53.38253906 -10.90203125 52.76507813 -10.8515625 52.12890625 C-10.39543823 46.96211925 -9.67386137 42.03819608 -8.40234375 37.0078125 C-7.86901135 34.68761657 -7.86901135 34.68761657 -8 31 C-7.34 31 -6.68 31 -6 31 C-6.185625 29.845 -6.37125 28.69 -6.5625 27.5 C-7.52148499 19.88214739 -5.83233917 12.86210889 -3 5.8125 C-2.649375 4.93207031 -2.29875 4.05164063 -1.9375 3.14453125 C-1 1 -1 1 0 0 Z " fill="#0246A6" transform="translate(201,69)"/>
<path d="M0 0 C9.48347252 -0.02313912 18.96693536 -0.04092312 28.45042992 -0.05181217 C32.85368215 -0.05703755 37.25691511 -0.06412897 41.66015625 -0.07543945 C45.90709244 -0.08628054 50.15401006 -0.09227944 54.40095901 -0.09487724 C56.02372149 -0.09672928 57.64648292 -0.10034568 59.26923752 -0.10573006 C61.53677339 -0.11295668 63.80423187 -0.11399025 66.07177734 -0.11352539 C67.36417328 -0.115746 68.65656921 -0.11796661 69.98812866 -0.12025452 C73 0 73 0 75 1 C76.63539966 5.90619898 75.55250171 9.97093045 74.375 14.828125 C72.67704385 17.51012392 71.18378278 17.84315607 68.18771362 18.61779785 C63.82905425 19.37927274 59.44645836 19.24121854 55.03515625 19.1953125 C54.00184677 19.1924826 52.96853729 19.18965271 51.90391541 19.18673706 C48.62332278 19.17559647 45.34300927 19.15050304 42.0625 19.125 C39.83008208 19.1149623 37.59765986 19.10583783 35.36523438 19.09765625 C29.910062 19.07567721 24.45505095 19.04226084 19 19 C19.1619646 19.90869433 19.3239292 20.81738867 19.49080181 21.75361919 C20.25210031 27.13193075 20.1480655 32.52035318 20.14717102 37.9420929 C20.15084771 39.14254421 20.1545244 40.34299552 20.1583125 41.57982415 C20.16740264 44.90009398 20.172041 48.22031453 20.17470181 51.54059207 C20.17862066 55.12723796 20.18819835 58.71386976 20.19691467 62.30050659 C20.21664256 70.96075017 20.22674413 79.62099485 20.23564246 88.28125528 C20.2400345 92.37076933 20.24539921 96.4602821 20.25063133 100.54979515 C20.26764578 114.16645317 20.28213383 127.7831104 20.28938007 141.39977741 C20.29128965 144.93049941 20.29321002 148.46122139 20.29516602 151.99194336 C20.29564976 152.86937736 20.2961335 153.74681137 20.2966319 154.65083428 C20.3049092 168.82365755 20.33020604 182.99639579 20.36274669 197.16918204 C20.39596591 211.75799095 20.41384248 226.34675691 20.41702431 240.9356038 C20.41917657 249.11105158 20.42773378 257.28637566 20.45348549 265.46178627 C20.47539723 272.43389343 20.4831443 279.40584687 20.47351871 286.37798456 C20.46903125 289.923566 20.47052647 293.46883176 20.49028015 297.01436806 C20.59731136 320.03211115 17.59776841 341.64605824 12.9375 364.125 C12.07760006 368.4041871 11.481923 372.66269298 11 377 C10.34 377 9.68 377 9 377 C9.185625 377.825 9.37125 378.65 9.5625 379.5 C10.08111907 383.64895258 9.69776867 386.88316482 9 391 C8.67 391.33 8.34 391.66 8 392 C8.020625 392.94875 8.04125 393.8975 8.0625 394.875 C8 398 8 398 6 401 C5.29835358 402.98799818 4.62627128 404.98698517 4 407 C0.97512488 403.97512488 1.0391018 401.05757509 0.88451487 396.87650675 C0.8890165 395.69280845 0.89351812 394.50911014 0.89815617 393.2895422 C0.89928989 392.62481725 0.90042361 391.96009231 0.90159169 391.27522418 C0.90663178 389.04403077 0.91892853 386.81293653 0.9311676 384.58177185 C0.93629389 382.96751174 0.94096824 381.35325014 0.94522899 379.73898751 C0.95822038 375.29996661 0.97751694 370.86099186 0.99779546 366.4219991 C1.01853439 361.63602065 1.03338238 356.85002372 1.04885864 352.06402588 C1.07640045 343.77000567 1.10742878 335.47600444 1.14059639 327.18200493 C1.1883881 315.18588159 1.22870086 303.18974165 1.2667824 291.19358397 C1.32860015 271.7254805 1.3934695 252.25738879 1.46166992 232.78930664 C1.46575066 231.62385301 1.4698314 230.45839939 1.47403579 229.25762898 C1.53211822 212.70938306 1.59317819 196.16114943 1.65541654 179.61291868 C1.65980047 178.44716186 1.6641844 177.28140505 1.66870117 176.08032227 C1.6730817 174.91598222 1.67746222 173.75164218 1.68197549 172.55201911 C1.75474539 153.15633014 1.81979038 133.76062445 1.8784737 114.36488777 C1.91500317 102.39474771 1.95810595 90.42466635 2.00957488 78.45458103 C2.04431401 70.25775384 2.07185455 62.06092289 2.09365935 53.86405116 C2.10649048 49.13043372 2.12267113 44.39688733 2.14757729 39.66331673 C2.17029584 35.33392762 2.18383733 31.0046125 2.18994271 26.675169 C2.19381054 25.10525846 2.2011191 23.53535204 2.21213276 21.96547537 C2.22656915 19.8384243 2.2287103 17.71170816 2.22768497 15.58461666 C2.23202425 14.40108071 2.23636353 13.21754476 2.2408343 11.99814409 C2.0041912 9.05217622 1.42568055 7.52588813 0 5 C-0.125 2.25 -0.125 2.25 0 0 Z " fill="#0748A5" transform="translate(112,64)"/>
<path d="M0 0 C3.09867903 4.64801855 3.12343667 8.15892935 3.11022377 13.7051115 C3.10998884 14.38140001 3.1097539 15.05768852 3.10951185 15.75447062 C3.10747882 18.03098473 3.09822099 20.30741246 3.08901978 22.58390808 C3.08604238 24.22831744 3.08350556 25.87272764 3.08137262 27.5171383 C3.07420259 32.04401524 3.06070277 36.57085483 3.04618168 41.09771335 C3.03161868 45.97636407 3.02285362 50.85502563 3.01335144 55.73368835 C2.99378198 65.2933701 2.96873592 74.85303007 2.9417484 84.41269346 C2.91992504 92.17812821 2.90007031 99.94356566 2.88163376 107.70900917 C2.87770057 109.36465381 2.87770057 109.36465381 2.87368792 111.05374581 C2.8683705 113.29573993 2.86305771 115.53773407 2.85774951 117.77972821 C2.80771045 138.81649424 2.75148224 159.85324028 2.69314377 180.8899847 C2.64317543 198.96009387 2.59847203 217.03020981 2.55761719 235.1003418 C2.51021602 256.06473091 2.4595987 277.02910813 2.40379179 297.99347669 C2.39785634 300.22646382 2.39192498 302.45945097 2.38599777 304.69243813 C2.38307939 305.79123335 2.380161 306.89002857 2.37715418 308.02212062 C2.35676112 315.78426127 2.33868607 323.54640537 2.32149124 331.3085537 C2.30049262 340.75909142 2.27596714 350.209612 2.24684478 359.66012832 C2.23206197 364.48648837 2.21890978 369.31283871 2.21003914 374.13921356 C2.20188713 378.54991814 2.18919746 382.96058456 2.17275397 387.37126581 C2.16759582 388.97410974 2.1641519 390.57696022 2.16251679 392.17981162 C2.16006237 394.34405618 2.15157801 396.50819172 2.14145851 398.67241192 C2.1382584 399.87889344 2.13505828 401.08537496 2.13176119 402.32841653 C2 405 2 405 1 406 C-1.22831143 406.1101855 -3.46016032 406.14914583 -5.69116211 406.16113281 C-6.39035263 406.16609772 -7.08954315 406.17106262 -7.80992126 406.17617798 C-10.13240528 406.19083258 -12.45482102 406.19760669 -14.77734375 406.203125 C-16.3853811 406.20887332 -17.99341841 406.21463109 -19.60145569 406.22039795 C-22.9767387 406.23091705 -26.35199782 406.23675389 -29.72729492 406.24023438 C-34.0598828 406.24572394 -38.39215715 406.26975775 -42.72464657 406.29820633 C-46.04713372 406.31679617 -49.36954477 406.32203632 -52.69207954 406.32357025 C-54.28973672 406.32660513 -55.8873923 406.33466162 -57.4849987 406.34775543 C-59.71672554 406.36474194 -61.94767877 406.36295449 -64.17944336 406.35644531 C-65.4510582 406.36009094 -66.72267303 406.36373657 -68.03282166 406.36749268 C-69.01199051 406.24622009 -69.99115936 406.12494751 -71 406 C-71.99 404.515 -71.99 404.515 -73 403 C-72.3909893 400.65095874 -71.71927295 398.31765729 -71 396 C-70.9629721 394.3337447 -70.95240038 392.66598681 -71 391 C-70.67 390.34 -70.34 389.68 -70 389 C-63.79979258 387.8708674 -57.66110249 387.86793936 -51.375 387.90234375 C-49.89374634 387.90446617 -49.89374634 387.90446617 -48.38256836 387.90663147 C-45.25501364 387.91219073 -42.12753277 387.92473554 -39 387.9375 C-36.86849062 387.94252027 -34.73698012 387.94708225 -32.60546875 387.95117188 C-27.403621 387.96214678 -22.20181578 387.97884388 -17 388 C-16.99864347 387.34860605 -16.99728694 386.6972121 -16.99588931 386.02607894 C-16.91519208 347.39611518 -16.82421818 308.7661878 -16.71994839 270.13628016 C-16.70742992 265.49515052 -16.69499709 260.85402064 -16.68261719 256.21289062 C-16.68015119 255.28894777 -16.6776852 254.36500492 -16.67514448 253.41306379 C-16.63544994 238.46410469 -16.60268799 223.51513805 -16.57250018 208.56615707 C-16.54135658 193.22050815 -16.50273477 177.8748911 -16.45720994 162.52927804 C-16.4293664 153.06465788 -16.40731548 143.60006097 -16.39273749 134.13541093 C-16.38217348 127.64004134 -16.36432793 121.14471683 -16.34083296 114.64938125 C-16.32750209 110.9051893 -16.31730833 107.16106037 -16.31578636 103.41684341 C-16.31404824 99.34843148 -16.29693903 95.28022341 -16.2784729 91.21185303 C-16.28040763 90.04061315 -16.28234237 88.86937328 -16.28433573 87.66264129 C-16.23429166 80.26381128 -15.43680455 73.25783021 -14 66 C-13.34 66 -12.68 66 -12 66 C-12.185625 64.948125 -12.37125 63.89625 -12.5625 62.8125 C-12.95079331 59.42880118 -12.88247485 57.23574112 -12 54 C-11.67 54 -11.34 54 -11 54 C-10.95101562 53.38253906 -10.90203125 52.76507813 -10.8515625 52.12890625 C-10.39543823 46.96211925 -9.67386137 42.03819608 -8.40234375 37.0078125 C-7.86901135 34.68761657 -7.86901135 34.68761657 -8 31 C-7.34 31 -6.68 31 -6 31 C-6.185625 29.845 -6.37125 28.69 -6.5625 27.5 C-7.52148499 19.88214739 -5.83233917 12.86210889 -3 5.8125 C-2.649375 4.93207031 -2.29875 4.05164063 -1.9375 3.14453125 C-1 1 -1 1 0 0 Z M-1 6 C-1.20753906 7.20785156 -1.41507812 8.41570312 -1.62890625 9.66015625 C-4.19568429 24.53287514 -6.85537259 39.38817005 -9.53735352 54.24047852 C-9.68474472 55.0583786 -9.83213593 55.87627869 -9.98399353 56.71896362 C-10.25811565 58.24010065 -10.5328418 59.76112904 -10.80836487 61.28201294 C-11.06166073 62.68857046 -11.31109462 64.09582996 -11.55630696 65.50381923 C-11.85916261 67.20766034 -12.17699035 68.90889097 -12.50777042 70.60753179 C-13.91245734 78.20314526 -14.27886996 85.49947933 -14.24050903 93.21185303 C-14.24307231 95.12608452 -14.24307231 95.12608452 -14.24568737 97.07898736 C-14.25011945 100.58640966 -14.24221492 104.09370777 -14.23213124 107.60111427 C-14.22343869 111.39643954 -14.22642098 115.19175863 -14.22793579 118.98709106 C-14.22898099 125.55124297 -14.22274268 132.11535491 -14.21146011 138.67949677 C-14.19515841 148.16996489 -14.18999234 157.66041382 -14.18748413 167.15089443 C-14.18311434 182.55112806 -14.1698247 197.95134041 -14.15087891 213.3515625 C-14.13250155 228.30533746 -14.11835414 243.25910664 -14.10986328 258.21289062 C-14.10933783 259.13570657 -14.10881239 260.05852252 -14.10827102 261.00930259 C-14.10566081 265.63911703 -14.10313343 270.26893151 -14.10064721 274.89874601 C-14.07993701 313.26584629 -14.04417793 351.63292009 -14 390 C-31.82 390 -49.64 390 -68 390 C-70.32050798 396.90842629 -70.32050798 396.90842629 -70 404 C-46.9 404 -23.8 404 0 404 C0 272.66 0 141.32 0 6 C-0.33 6 -0.66 6 -1 6 Z " fill="#C4D4EB" transform="translate(201,69)"/>
<path d="M0 0 C9.48347252 -0.02313912 18.96693536 -0.04092312 28.45042992 -0.05181217 C32.85368215 -0.05703755 37.25691511 -0.06412897 41.66015625 -0.07543945 C45.90709244 -0.08628054 50.15401006 -0.09227944 54.40095901 -0.09487724 C56.02372149 -0.09672928 57.64648292 -0.10034568 59.26923752 -0.10573006 C61.53677339 -0.11295668 63.80423187 -0.11399025 66.07177734 -0.11352539 C67.36417328 -0.115746 68.65656921 -0.11796661 69.98812866 -0.12025452 C73 0 73 0 75 1 C76.91528081 6.74584242 74.91286086 11.5315955 73 17 C72.67 17 72.34 17 72 17 C72.14120714 15.06215735 72.28812873 13.12473045 72.4375 11.1875 C72.55931641 9.56908203 72.55931641 9.56908203 72.68359375 7.91796875 C73 5 73 5 74 2 C72.76773682 2.03029297 71.53547363 2.06058594 70.26586914 2.09179688 C65.55972195 2.20666622 60.85348547 2.31747672 56.1472168 2.42724609 C54.13547289 2.47469364 52.1237524 2.52314827 50.11206055 2.57275391 C34.73267232 2.95096722 19.3905646 3 4 3 C4.33 131.37 4.66 259.74 5 392 C7.31 378.8 9.62 365.6 12 352 C13.43366158 344.80271088 13.43366158 344.80271088 14.89628601 337.46002197 C17.42915422 323.23452277 17.72305663 309.20277634 17.6648711 294.79546475 C17.6554023 291.04808393 17.67529149 287.30082549 17.69119263 283.55348206 C17.71476787 277.0970735 17.72070928 270.64085545 17.71384621 264.1844101 C17.7039508 254.85010691 17.72193589 245.51601152 17.74621352 236.1817421 C17.78489068 221.02887146 17.80175337 205.87606123 17.80444336 190.72314453 C17.8071005 176.02421988 17.82031387 161.32536562 17.84741211 146.62646484 C17.84908549 145.71681346 17.85075887 144.80716207 17.85248295 143.8699455 C17.86094388 139.30541305 17.86960904 134.74088103 17.87837565 130.17634916 C17.9505678 92.45090606 17.98579272 54.72550627 18 17 C35.49 17 52.98 17 71 17 C67.75715221 19.16189853 66.89903779 19.24626755 63.16137695 19.22705078 C61.69019157 19.22682419 61.69019157 19.22682419 60.18928528 19.22659302 C59.13295395 19.21627045 58.07662262 19.20594788 56.98828125 19.1953125 C55.90491989 19.1924826 54.82155853 19.18965271 53.70536804 19.18673706 C50.24096692 19.17553091 46.77682315 19.15042534 43.3125 19.125 C40.96549852 19.11497077 38.618493 19.10584482 36.27148438 19.09765625 C30.51423493 19.07559016 24.75713585 19.04210827 19 19 C19.1619646 19.90869433 19.3239292 20.81738867 19.49080181 21.75361919 C20.25210031 27.13193075 20.1480655 32.52035318 20.14717102 37.9420929 C20.15084771 39.14254421 20.1545244 40.34299552 20.1583125 41.57982415 C20.16740264 44.90009398 20.172041 48.22031453 20.17470181 51.54059207 C20.17862066 55.12723796 20.18819835 58.71386976 20.19691467 62.30050659 C20.21664256 70.96075017 20.22674413 79.62099485 20.23564246 88.28125528 C20.2400345 92.37076933 20.24539921 96.4602821 20.25063133 100.54979515 C20.26764578 114.16645317 20.28213383 127.7831104 20.28938007 141.39977741 C20.29128965 144.93049941 20.29321002 148.46122139 20.29516602 151.99194336 C20.29564976 152.86937736 20.2961335 153.74681137 20.2966319 154.65083428 C20.3049092 168.82365755 20.33020604 182.99639579 20.36274669 197.16918204 C20.39596591 211.75799095 20.41384248 226.34675691 20.41702431 240.9356038 C20.41917657 249.11105158 20.42773378 257.28637566 20.45348549 265.46178627 C20.47539723 272.43389343 20.4831443 279.40584687 20.47351871 286.37798456 C20.46903125 289.923566 20.47052647 293.46883176 20.49028015 297.01436806 C20.59731136 320.03211115 17.59776841 341.64605824 12.9375 364.125 C12.07760006 368.4041871 11.481923 372.66269298 11 377 C10.34 377 9.68 377 9 377 C9.185625 377.825 9.37125 378.65 9.5625 379.5 C10.08111907 383.64895258 9.69776867 386.88316482 9 391 C8.67 391.33 8.34 391.66 8 392 C8.020625 392.94875 8.04125 393.8975 8.0625 394.875 C8 398 8 398 6 401 C5.29835358 402.98799818 4.62627128 404.98698517 4 407 C0.97512488 403.97512488 1.0391018 401.05757509 0.88451487 396.87650675 C0.8890165 395.69280845 0.89351812 394.50911014 0.89815617 393.2895422 C0.89928989 392.62481725 0.90042361 391.96009231 0.90159169 391.27522418 C0.90663178 389.04403077 0.91892853 386.81293653 0.9311676 384.58177185 C0.93629389 382.96751174 0.94096824 381.35325014 0.94522899 379.73898751 C0.95822038 375.29996661 0.97751694 370.86099186 0.99779546 366.4219991 C1.01853439 361.63602065 1.03338238 356.85002372 1.04885864 352.06402588 C1.07640045 343.77000567 1.10742878 335.47600444 1.14059639 327.18200493 C1.1883881 315.18588159 1.22870086 303.18974165 1.2667824 291.19358397 C1.32860015 271.7254805 1.3934695 252.25738879 1.46166992 232.78930664 C1.46575066 231.62385301 1.4698314 230.45839939 1.47403579 229.25762898 C1.53211822 212.70938306 1.59317819 196.16114943 1.65541654 179.61291868 C1.65980047 178.44716186 1.6641844 177.28140505 1.66870117 176.08032227 C1.6730817 174.91598222 1.67746222 173.75164218 1.68197549 172.55201911 C1.75474539 153.15633014 1.81979038 133.76062445 1.8784737 114.36488777 C1.91500317 102.39474771 1.95810595 90.42466635 2.00957488 78.45458103 C2.04431401 70.25775384 2.07185455 62.06092289 2.09365935 53.86405116 C2.10649048 49.13043372 2.12267113 44.39688733 2.14757729 39.66331673 C2.17029584 35.33392762 2.18383733 31.0046125 2.18994271 26.675169 C2.19381054 25.10525846 2.2011191 23.53535204 2.21213276 21.96547537 C2.22656915 19.8384243 2.2287103 17.71170816 2.22768497 15.58461666 C2.23202425 14.40108071 2.23636353 13.21754476 2.2408343 11.99814409 C2.0041912 9.05217622 1.42568055 7.52588813 0 5 C-0.125 2.25 -0.125 2.25 0 0 Z " fill="#89AAC3" transform="translate(112,64)"/>
<path d="M0 0 C17.49 0 34.98 0 53 0 C49.75715221 2.16189853 48.89903779 2.24626755 45.16137695 2.22705078 C43.69019157 2.22682419 43.69019157 2.22682419 42.18928528 2.22659302 C41.13295395 2.21627045 40.07662262 2.20594788 38.98828125 2.1953125 C37.90491989 2.1924826 36.82155853 2.18965271 35.70536804 2.18673706 C32.24096692 2.17553091 28.77682315 2.15042534 25.3125 2.125 C22.96549852 2.11497077 20.618493 2.10584482 18.27148438 2.09765625 C12.51423493 2.07559016 6.75713585 2.04210827 1 2 C1.1619646 2.90869433 1.3239292 3.81738867 1.49080181 4.75361919 C2.25210031 10.13193075 2.1480655 15.52035318 2.14717102 20.9420929 C2.15084771 22.14254421 2.1545244 23.34299552 2.1583125 24.57982415 C2.16740264 27.90009398 2.172041 31.22031453 2.17470181 34.54059207 C2.17862066 38.12723796 2.18819835 41.71386976 2.19691467 45.30050659 C2.21664256 53.96075017 2.22674413 62.62099485 2.23564246 71.28125528 C2.2400345 75.37076933 2.24539921 79.4602821 2.25063133 83.54979515 C2.26764578 97.16645317 2.28213383 110.7831104 2.28938007 124.39977741 C2.29128965 127.93049941 2.29321002 131.46122139 2.29516602 134.99194336 C2.29564976 135.86937736 2.2961335 136.74681137 2.2966319 137.65083428 C2.3049092 151.82365755 2.33020604 165.99639579 2.36274669 180.16918204 C2.39596591 194.75799095 2.41384248 209.34675691 2.41702431 223.9356038 C2.41917657 232.11105158 2.42773378 240.28637566 2.45348549 248.46178627 C2.47539723 255.43389343 2.4831443 262.40584687 2.47351871 269.37798456 C2.46903125 272.923566 2.47052647 276.46883176 2.49028015 280.01436806 C2.59731136 303.03211115 -0.40223159 324.64605824 -5.0625 347.125 C-5.92239994 351.4041871 -6.518077 355.66269298 -7 360 C-7.66 360 -8.32 360 -9 360 C-8.814375 360.825 -8.62875 361.65 -8.4375 362.5 C-7.91888093 366.64895258 -8.30223133 369.88316482 -9 374 C-9.33 374.33 -9.66 374.66 -10 375 C-9.979375 375.94875 -9.95875 376.8975 -9.9375 377.875 C-10.01875991 381.93799566 -11.77856056 383.66784083 -14 387 C-13.43991501 376.510184 -11.61016133 366.3170609 -9.75 356 C-9.45913776 354.36467177 -9.16877151 352.72925524 -8.87890625 351.09375 C-8.67151171 349.92897704 -8.67151171 349.92897704 -8.45992738 348.7406733 C-8.15565809 347.02711678 -7.85340127 345.31320092 -7.5537383 343.59883285 C-6.68661388 338.68106799 -5.75754045 333.78525235 -4.73564625 328.89719009 C-1.26272619 311.78750788 -0.26481818 295.20509385 -0.3351289 277.79546475 C-0.3445977 274.04808393 -0.32470851 270.30082549 -0.30880737 266.55348206 C-0.28523213 260.0970735 -0.27929072 253.64085545 -0.28615379 247.1844101 C-0.2960492 237.85010691 -0.27806411 228.51601152 -0.25378648 219.1817421 C-0.21510932 204.02887146 -0.19824663 188.87606123 -0.19555664 173.72314453 C-0.1928995 159.02421988 -0.17968613 144.32536562 -0.15258789 129.62646484 C-0.15091451 128.71681346 -0.14924113 127.80716207 -0.14751705 126.8699455 C-0.13905612 122.30541305 -0.13039096 117.74088103 -0.12162435 113.17634916 C-0.0494322 75.45090606 -0.01420728 37.72550627 0 0 Z " fill="#E9F4FD" transform="translate(130,81)"/>
<path d="M0 0 C1.7060433 3.4120866 0.01280673 7.10213969 -0.8125 10.6875 C-2.1132639 16.57070081 -3.27559012 22.38698808 -4 28.375 C-4.7240969 34.30751317 -5.7393338 40.13316672 -6.875 46 C-7.03652864 46.84312648 -7.19805728 47.68625296 -7.36448073 48.55492872 C-8.22716575 53.04983175 -9.11060584 57.53650973 -10.06332779 62.01323032 C-13.24122852 77.62691935 -13.58862693 93.00096602 -13.54880548 108.87783611 C-13.5437783 112.66551379 -13.56204564 116.45309711 -13.57722473 120.24073792 C-13.60034241 126.77469149 -13.60929401 133.30853469 -13.60811615 139.84252739 C-13.60643452 149.28909885 -13.62690648 158.7355248 -13.65247145 168.18205715 C-13.69337964 183.51516316 -13.71682117 198.84824268 -13.72900391 214.18139648 C-13.74086352 229.06000305 -13.76111991 243.93855988 -13.79248047 258.81713867 C-13.79441657 259.73706466 -13.79635267 260.65699065 -13.79834744 261.60479318 C-13.80811324 266.22063098 -13.81804213 270.8364684 -13.82805204 275.45230567 C-13.91064449 313.63484972 -13.96368037 351.81738594 -14 390 C-41.225 390.495 -41.225 390.495 -69 391 C-69.33 390.34 -69.66 389.68 -70 389 C-63.74910641 388.07453471 -57.68845843 387.86778963 -51.375 387.90234375 C-49.89374634 387.90446617 -49.89374634 387.90446617 -48.38256836 387.90663147 C-45.25501364 387.91219073 -42.12753277 387.92473554 -39 387.9375 C-36.86849062 387.94252027 -34.73698012 387.94708225 -32.60546875 387.95117188 C-27.403621 387.96214678 -22.20181578 387.97884388 -17 388 C-16.99864347 387.34860605 -16.99728694 386.6972121 -16.99588931 386.02607894 C-16.91519208 347.39611518 -16.82421818 308.7661878 -16.71994839 270.13628016 C-16.70742992 265.49515052 -16.69499709 260.85402064 -16.68261719 256.21289062 C-16.68015119 255.28894777 -16.6776852 254.36500492 -16.67514448 253.41306379 C-16.63544994 238.46410469 -16.60268799 223.51513805 -16.57250018 208.56615707 C-16.54135658 193.22050815 -16.50273477 177.8748911 -16.45720994 162.52927804 C-16.4293664 153.06465788 -16.40731548 143.60006097 -16.39273749 134.13541093 C-16.38217348 127.64004134 -16.36432793 121.14471683 -16.34083296 114.64938125 C-16.32750209 110.9051893 -16.31730833 107.16106037 -16.31578636 103.41684341 C-16.31404824 99.34843148 -16.29693903 95.28022341 -16.2784729 91.21185303 C-16.28040763 90.04061315 -16.28234237 88.86937328 -16.28433573 87.66264129 C-16.23429166 80.26381128 -15.43680455 73.25783021 -14 66 C-13.34 66 -12.68 66 -12 66 C-12.185625 64.948125 -12.37125 63.89625 -12.5625 62.8125 C-12.95079331 59.42880118 -12.88247485 57.23574112 -12 54 C-11.67 54 -11.34 54 -11 54 C-10.95101562 53.38253906 -10.90203125 52.76507813 -10.8515625 52.12890625 C-10.39543823 46.96211925 -9.67386137 42.03819608 -8.40234375 37.0078125 C-7.86901135 34.68761657 -7.86901135 34.68761657 -8 31 C-7.34 31 -6.68 31 -6 31 C-6.185625 29.845 -6.37125 28.69 -6.5625 27.5 C-7.52148499 19.88214739 -5.83233917 12.86210889 -3 5.8125 C-2.649375 4.93207031 -2.29875 4.05164063 -1.9375 3.14453125 C-1 1 -1 1 0 0 Z " fill="#CBDCF5" transform="translate(201,69)"/>
<path d="M0 0 C0.33 0 0.66 0 1 0 C1 131.34 1 262.68 1 398 C-22.1 398 -45.2 398 -69 398 C-68 385 -68 385 -67 384 C-65.34261557 383.90653085 -63.68125356 383.88255023 -62.02124023 383.88647461 C-60.96021591 383.88655014 -59.89919159 383.88662567 -58.80601501 383.88670349 C-57.651866 383.89186478 -56.49771698 383.89702606 -55.30859375 383.90234375 C-54.13361832 383.9037587 -52.95864288 383.90517365 -51.74806213 383.90663147 C-47.97784936 383.91225008 -44.20769496 383.92480574 -40.4375 383.9375 C-37.88867273 383.9425126 -35.33984453 383.94707592 -32.79101562 383.95117188 C-26.52732367 383.96222556 -20.26366601 383.97898179 -14 384 C-14 384.33 -14 384.66 -14 385 C-31.16 385 -48.32 385 -66 385 C-66.33 388.96 -66.66 392.92 -67 397 C-44.89 397 -22.78 397 0 397 C-0.33 272.92 -0.66 148.84 -1 21 C-1.66 21.66 -2.32 22.32 -3 23 C-3.48350422 15.10276444 -1.67664721 7.66467297 0 0 Z " fill="#10448F" transform="translate(200,75)"/>
<path d="M0 0 C0.99 0.495 0.99 0.495 2 1 C2 122.77 2 244.54 2 370 C2.99 369.34 3.98 368.68 5 368 C4.42029353 376.49569832 2.76198299 384.68875949 1 393 C0.67 393 0.34 393 0 393 C0 263.31 0 133.62 0 0 Z " fill="#0A4492" transform="translate(116,67)"/>
<path d="M0 0 C0.33 0 0.66 0 1 0 C1.21171847 5.92811707 0.78839722 11.62481023 0.0625 17.5 C-0.06777588 18.57797852 -0.06777588 18.57797852 -0.20068359 19.67773438 C-0.87309786 24.87309786 -0.87309786 24.87309786 -2 26 C-5.58523251 41.50062993 -5.44949126 57.17319565 -5.43273985 72.99085867 C-5.4321078 76.71997335 -5.44881155 80.44901937 -5.46325684 84.17810059 C-5.48589638 90.616615 -5.49790239 97.05507585 -5.50238609 103.49362755 C-5.50888436 112.80232111 -5.53188561 122.11091844 -5.55872939 131.41957293 C-5.60185696 146.52750441 -5.6319035 161.6354318 -5.65356445 176.7434082 C-5.67461642 191.40684006 -5.70192807 206.07023856 -5.73754883 220.73364258 C-5.73974765 221.63968448 -5.74194648 222.54572639 -5.74421193 223.47922411 C-5.75528264 228.02522404 -5.76647525 232.57122366 -5.77772844 237.11722314 C-5.87071459 274.74478662 -5.94240437 312.37236652 -6 350 C-6.33 350 -6.66 350 -7 350 C-7.13787428 311.21401949 -7.24333071 272.42807643 -7.30639198 233.64189968 C-7.31389461 229.04414366 -7.3216607 224.44638812 -7.32958984 219.84863281 C-7.33195064 218.4758607 -7.33195064 218.4758607 -7.33435912 217.07535581 C-7.36033943 202.33193612 -7.407575 187.58865939 -7.46291678 172.84532399 C-7.51938389 157.67362226 -7.55242754 142.50199445 -7.56453097 127.33019197 C-7.57269029 117.99750785 -7.59828501 108.66522803 -7.6474988 99.33266865 C-7.67965885 92.89926314 -7.68870251 86.46606105 -7.68100826 80.03258134 C-7.67723259 76.34210814 -7.6822528 72.65233173 -7.71523285 68.96198845 C-7.88615574 48.84741234 -5.67166389 30.05777778 -1.65349734 10.40438688 C-0.98977212 6.94671797 -0.47077606 3.48870914 0 0 Z " fill="#14438F" transform="translate(194,108)"/>
<path d="M0 0 C0.33 0 0.66 0 1 0 C1 29.04 1 58.08 1 88 C-10.83875 88.061875 -22.6775 88.12375 -34.875 88.1875 C-38.61569824 88.21481201 -42.35639648 88.24212402 -46.21044922 88.27026367 C-50.77172852 88.28381348 -50.77172852 88.28381348 -52.90579224 88.28633118 C-54.39906493 88.29094364 -55.89232631 88.30150668 -57.38552856 88.31672668 C-59.64507514 88.33861031 -61.90393793 88.34172069 -64.16357422 88.34057617 C-65.43820526 88.34723801 -66.7128363 88.35389984 -68.02609253 88.36076355 C-69.00748199 88.24171158 -69.98887146 88.12265961 -71 88 C-71.66 87.01 -72.32 86.02 -73 85 C-72.3909893 82.65095874 -71.71927295 80.31765729 -71 78 C-70.83071457 75.20755955 -70.83071457 75.20755955 -71 73 C-70.34 73 -69.68 73 -69 73 C-69.33 77.29 -69.66 81.58 -70 86 C-46.9 86 -23.8 86 0 86 C0 57.62 0 29.24 0 0 Z " fill="#96B9DC" transform="translate(201,387)"/>
<path d="M0 0 C1.7060433 3.4120866 0.01280673 7.10213969 -0.8125 10.6875 C-2.1132639 16.57070081 -3.27559012 22.38698808 -4 28.375 C-4.83271381 35.19740964 -6.06821422 41.89700479 -7.39404297 48.63964844 C-8.35227426 53.53451723 -9.25592559 58.43182019 -10.078125 63.3515625 C-10.25359863 64.39828125 -10.42907227 65.445 -10.60986328 66.5234375 C-10.94750273 68.55631503 -11.27941826 70.59015339 -11.60498047 72.625 C-11.75854004 73.54539062 -11.91209961 74.46578125 -12.0703125 75.4140625 C-12.20195801 76.2282666 -12.33360352 77.0424707 -12.46923828 77.88134766 C-13 80 -13 80 -15 83 C-15.12036664 77.22240116 -14.8320582 71.72040011 -14 66 C-13.34 66 -12.68 66 -12 66 C-12.185625 64.948125 -12.37125 63.89625 -12.5625 62.8125 C-12.95079331 59.42880118 -12.88247485 57.23574112 -12 54 C-11.67 54 -11.34 54 -11 54 C-10.95101562 53.38253906 -10.90203125 52.76507813 -10.8515625 52.12890625 C-10.39543823 46.96211925 -9.67386137 42.03819608 -8.40234375 37.0078125 C-7.86901135 34.68761657 -7.86901135 34.68761657 -8 31 C-7.34 31 -6.68 31 -6 31 C-6.2784375 29.2675 -6.2784375 29.2675 -6.5625 27.5 C-7.52148499 19.88214739 -5.83233917 12.86210889 -3 5.8125 C-2.649375 4.93207031 -2.29875 4.05164063 -1.9375 3.14453125 C-1 1 -1 1 0 0 Z " fill="#E8F3FB" transform="translate(201,69)"/>
<path d="M0 0 C9.48347252 -0.02313912 18.96693536 -0.04092312 28.45042992 -0.05181217 C32.85368215 -0.05703755 37.25691511 -0.06412897 41.66015625 -0.07543945 C45.90709244 -0.08628054 50.15401006 -0.09227944 54.40095901 -0.09487724 C56.02372149 -0.09672928 57.64648292 -0.10034568 59.26923752 -0.10573006 C61.53677339 -0.11295668 63.80423187 -0.11399025 66.07177734 -0.11352539 C67.36417328 -0.115746 68.65656921 -0.11796661 69.98812866 -0.12025452 C73 0 73 0 75 1 C76.91528081 6.74584242 74.91286086 11.5315955 73 17 C72.67 17 72.34 17 72 17 C72.14120714 15.06215735 72.28812873 13.12473045 72.4375 11.1875 C72.55931641 9.56908203 72.55931641 9.56908203 72.68359375 7.91796875 C73 5 73 5 74 2 C50.57 2 27.14 2 3 2 C3 4.31 3 6.62 3 9 C0.21680673 5.86890758 -0.16426757 4.12722261 0 0 Z " fill="#C5DBF6" transform="translate(112,64)"/>
<path d="M0 0 C14.85 0 29.7 0 45 0 C44.34 4.62 43.68 9.24 43 14 C25.18 14 7.36 14 -11 14 C-11 13.67 -11 13.34 -11 13 C6.49 13 23.98 13 42 13 C42 9.04 42 5.08 42 1 C28.14 1 14.28 1 0 1 C0 0.67 0 0.34 0 0 Z " fill="#12468F" transform="translate(141,66)"/>
<path d="M0 0 C0.33 0 0.66 0 1 0 C0.42029353 8.49569832 -1.23801701 16.68875949 -3 25 C-3.33 25 -3.66 25 -4 25 C-4 17.08 -4 9.16 -4 1 C-3.01 1 -2.02 1 -1 1 C-0.67 0.67 -0.34 0.34 0 0 Z " fill="#184C8B" transform="translate(120,435)"/>
<path d="M0 0 C19.305 0.495 19.305 0.495 39 1 C39 1.33 39 1.66 39 2 C27.12 2 15.24 2 3 2 C3 4.31 3 6.62 3 9 C-0.0279691 5.59353476 0 4.9819505 0 0 Z " fill="#D3EAFE" transform="translate(112,64)"/>
<path d="M0 0 C1.40305736 2.80611472 0.66161338 4.39740142 0.00390625 7.4453125 C-0.22490234 8.52167969 -0.45371094 9.59804687 -0.68945312 10.70703125 C-0.93630859 11.83496094 -1.18316406 12.96289062 -1.4375 14.125 C-1.68048828 15.26066406 -1.92347656 16.39632812 -2.17382812 17.56640625 C-2.77651846 20.37896117 -3.38549188 23.19000762 -4 26 C-4.66 26 -5.32 26 -6 26 C-8.18359212 19.44922364 -5.4867832 12.00203025 -3 5.8125 C-2.649375 4.93207031 -2.29875 4.05164063 -1.9375 3.14453125 C-1 1 -1 1 0 0 Z " fill="#EDF6FB" transform="translate(201,69)"/>
<path d="M0 0 C0.33 0 0.66 0 1 0 C1 6.93 1 13.86 1 21 C0.34 21 -0.32 21 -1 21 C-1.66 21.66 -2.32 22.32 -3 23 C-3.48350422 15.10276444 -1.67664721 7.66467297 0 0 Z " fill="#254F89" transform="translate(200,75)"/>
<path d="M0 0 C0.33 0 0.66 0 1 0 C1.21171847 5.92811707 0.78839722 11.62481023 0.0625 17.5 C-0.06777588 18.57797852 -0.06777588 18.57797852 -0.20068359 19.67773438 C-0.87309786 24.87309786 -0.87309786 24.87309786 -2 26 C-2.23192865 27.51469448 -2.41215238 29.03754562 -2.5625 30.5625 C-2.68818359 31.80193359 -2.68818359 31.80193359 -2.81640625 33.06640625 C-2.87699219 33.70449219 -2.93757812 34.34257812 -3 35 C-5 33 -5 33 -5.04907227 31.04345703 C-4.95166748 30.24794434 -4.8542627 29.45243164 -4.75390625 28.6328125 C-4.64449707 27.73723633 -4.53508789 26.84166016 -4.42236328 25.91894531 C-3.69405309 20.88560619 -2.83852915 15.88000999 -1.9375 10.875 C-1.75123047 9.823125 -1.56496094 8.77125 -1.37304688 7.6875 C-0.91867754 5.12439092 -0.46094303 2.56193355 0 0 Z " fill="#27569B" transform="translate(194,108)"/>
<path d="M0 0 C0.66 0 1.32 0 2 0 C1.67 4.29 1.34 8.58 1 13 C10.57 13 20.14 13 30 13 C30 13.33 30 13.66 30 14 C19.77 14 9.54 14 -1 14 C-2.58139421 10.83721158 -0.95221046 8.30473042 0 5 C0.16928543 2.20755955 0.16928543 2.20755955 0 0 Z " fill="#8AA9D0" transform="translate(130,460)"/>
<path d="M0 0 C0.33 0 0.66 0 1 0 C1.79880547 19.65949024 1.79880547 19.65949024 -2.57421875 24.87890625 C-3.04472656 25.24886719 -3.51523438 25.61882812 -4 26 C-2.98074847 17.26046032 -1.94183957 8.59367299 0 0 Z " fill="#CDDFF2" transform="translate(126,406)"/>
<path d="M0 0 C1.12620346 3.37861037 0.85306689 4.86651192 0.22265625 8.32421875 C0.03896484 9.35224609 -0.14472656 10.38027344 -0.33398438 11.43945312 C-0.53314453 12.51130859 -0.73230469 13.58316406 -0.9375 14.6875 C-1.23043945 16.31268555 -1.23043945 16.31268555 -1.52929688 17.97070312 C-2.01293496 20.64840667 -2.50342004 23.32467152 -3 26 C-3.33 26 -3.66 26 -4 26 C-4.02687279 24.18757948 -4.04633715 22.37504767 -4.0625 20.5625 C-4.07410156 19.55316406 -4.08570312 18.54382813 -4.09765625 17.50390625 C-4 15 -4 15 -3 14 C-2.92773498 12.14712498 -2.9161878 10.29166122 -2.9375 8.4375 C-2.94652344 7.42558594 -2.95554687 6.41367187 -2.96484375 5.37109375 C-2.97644531 4.58863281 -2.98804687 3.80617188 -3 3 C-2.01 2.67 -1.02 2.34 0 2 C0 1.34 0 0.68 0 0 Z " fill="#184D98" transform="translate(125,407)"/>
<path d="M0 0 C0.66 0 1.32 0 2 0 C0.80039297 8.02715768 -0.49746145 16.0237581 -2 24 C-2.33 24 -2.66 24 -3 24 C-2.67 17.73 -2.34 11.46 -2 5 C-1.34 5 -0.68 5 0 5 C0 3.35 0 1.7 0 0 Z " fill="#CFE2F6" transform="translate(195,95)"/>
<path d="M0 0 C-0.33 3.3 -0.66 6.6 -1 10 C-1.66 10 -2.32 10 -3 10 C-3.33 10.99 -3.66 11.98 -4 13 C-4.08086147 11.20906809 -4.13912702 9.41710372 -4.1875 7.625 C-4.22230469 6.62726563 -4.25710937 5.62953125 -4.29296875 4.6015625 C-4.14794922 3.31378906 -4.14794922 3.31378906 -4 2 C-1 0 -1 0 0 0 Z " fill="#154E9A" transform="translate(121,435)"/>
<path d="M0 0 C0.33 0 0.66 0 1 0 C1.2493357 1.60115576 1.47378648 3.20620159 1.6875 4.8125 C1.87892578 6.15248047 1.87892578 6.15248047 2.07421875 7.51953125 C2 10 2 10 0.51953125 11.82421875 C-0.23263672 12.40623047 -0.23263672 12.40623047 -1 13 C-1.07654536 8.48382401 -1.10228696 4.40914783 0 0 Z " fill="#2E5EA1" transform="translate(198,85)"/>
<path d="M0 0 C2.31 0 4.62 0 7 0 C5.68 0.33 4.36 0.66 3 1 C3 3.64 3 6.28 3 9 C0.90250005 6.64031256 0.03094296 5.45383006 -0.1875 2.25 C-0.125625 1.5075 -0.06375 0.765 0 0 Z " fill="#EFFBFE" transform="translate(112,64)"/>
<path d="M0 0 C0.33 0 0.66 0 1 0 C1.37211538 7.56634615 1.37211538 7.56634615 -0.51171875 9.76171875 C-1.00285156 10.17035156 -1.49398437 10.57898438 -2 11 C-2.05399736 9.54207116 -2.09279177 8.08357288 -2.125 6.625 C-2.15980469 5.40683594 -2.15980469 5.40683594 -2.1953125 4.1640625 C-2 2 -2 2 0 0 Z " fill="#0249A9" transform="translate(198,105)"/>
<path d="M0 0 C0.66 0.33 1.32 0.66 2 1 C1.25 8.625 1.25 8.625 -1 12 C-1.02712066 10.56260487 -1.04645067 9.12506137 -1.0625 7.6875 C-1.07410156 6.88699219 -1.08570313 6.08648437 -1.09765625 5.26171875 C-1 3 -1 3 0 0 Z " fill="#C9DEF2" transform="translate(187,140)"/>
<path d="M0 0 C3 1 3 1 3 1 Z " fill="#FFFFFF" transform="translate(126,63)"/>
</svg>
